<?xml version="1.0" encoding="utf-8"?>
<!-- Generator: Adobe Illustrator 23.0.1, SVG Export Plug-In . SVG Version: 6.00 Build 0)  -->
<svg version="1.1" id="Layer_1" xmlns="http://www.w3.org/2000/svg" xmlns:xlink="http://www.w3.org/1999/xlink" x="0px" y="0px"
	 viewBox="0 0 557.4 131.1" style="enable-background:new 0 0 557.4 131.1;" xml:space="preserve">
<style type="text/css">
	.st0{fill:#212229;}
	.st1{fill:#232C16;}
	.st2{fill:#F07B22;stroke:#488BBD;stroke-width:10;stroke-miterlimit:10;}
	.st3{fill:#F07B22;}
	.st4{fill:none;stroke:#FFFFFF;stroke-width:18;stroke-linecap:round;stroke-miterlimit:10;stroke-dasharray:0.917,27.5109;}
	.st5{fill:#94BF47;}
	.st6{fill:#4C4C7E;}
	.st7{fill:#FFFFFF;}
</style>
<g>
	<path class="st5" d="M151.5,89.2V36.7h-19.1V24.9h52.5v11.8h-19.2v52.5H151.5z"/>
	<path class="st5" d="M178.4,89.2V42.9h6.3c4.3,0,7.7,3.5,7.7,7.7v0h0.1c2.5-3.9,7-8.7,15.7-8.7h0.4l-0.2,12.4
		c-0.5-0.1-2.8-0.3-3.7-0.3c-5.6,0-9.7,3-12.4,6.4v28.8H178.4z"/>
	<path class="st5" d="M207.3,77.4c0-10.7,9-16.6,29.4-18.3V58c0-3.4-1.7-5.6-6.3-5.6c-5.9,0-11,2.4-15.2,5.7l-5.9-8
		c4.6-4.2,11.6-8.3,23.1-8.3c12.7,0,17.9,6.3,17.9,18.2v17.8c0,5.6,0.3,9,1.3,11.3h-13.9c-0.6-1.9-1-4.2-1-6.8
		c-4.3,4.8-9.3,7.5-16.2,7.5C213.3,89.9,207.3,85.3,207.3,77.4z M236.7,75.4v-8.6c-11,1.1-15.7,3.9-15.7,8.2c0,3,2.1,4.4,5.1,4.4
		C230.9,79.4,234.3,77.8,236.7,75.4z"/>
	<path class="st5" d="M257.1,89.2V42.9h6.7c4,0,7.3,3.3,7.3,7.3v0c2.8-3.7,7.9-8.3,16-8.3c7.8,0,13.5,3.9,13.5,13.5v33.8h-13.9V59.8
		c0-4.2-1.6-6.4-5.5-6.4c-3.7,0-7,1.9-10.1,4.6v31.1H257.1z"/>
	<path class="st5" d="M307.4,89.2V42.9h6.7c4,0,7.3,3.3,7.3,7.3v0c2.8-3.7,7.9-8.3,16-8.3c7.8,0,13.5,3.9,13.5,13.5v33.8H337V59.8
		c0-4.2-1.6-6.4-5.5-6.4c-3.7,0-7,1.9-10.1,4.6v31.1H307.4z"/>
	<path class="st5" d="M350.8,105.3l1-3.7c0.9-3.5,4.1-5.8,7.7-5.8l3,0c3,0,4.8-1.1,5.9-4l0.9-2.3l-17.7-46.6H366L376.2,73h0.2
		l10.3-30.1h13.6l-19.5,51.2c-3.1,8-7.4,12.9-16.7,12.9C357.1,107,353.2,106,350.8,105.3z"/>
	<path class="st3" d="M403.2,89.2V24.9h42.5v11.8h-28.4v15.7h20.2v11.2h-20.2v25.7H403.2z"/>
	<path class="st3" d="M444.2,89.2V42.9h6.3c4.3,0,7.7,3.5,7.7,7.7v0h0.1c2.5-3.9,7-8.7,15.7-8.7h0.4l-0.2,12.4
		c-0.5-0.1-2.8-0.3-3.7-0.3c-5.6,0-9.7,3-12.4,6.4v28.8H444.2z"/>
	<path class="st3" d="M477.1,76.7V42.9h14v29.7c0,4.2,1.6,6.4,5.5,6.4c3.7,0,7-2,10.1-4.7V42.9h14v46.4h-14V82
		c-2.8,3.6-7.9,8.2-16,8.2C482.7,90.2,477.1,86.3,477.1,76.7z"/>
	<path class="st3" d="M531.5,76.2V53.1h-7.7V42.9h7.7v-6.6c0-5.2,4.2-9.4,9.4-9.4h4.6v15.9h11.9v2.3c0,4.3-3.5,7.8-7.8,7.8h-4.1
		v20.1c0,5,1.4,6.5,6.4,6.5c1.6,0,3.7-0.2,4.6-0.5v1.5c0,5.1-4.1,9.2-9.1,9.2c0,0-0.1,0-0.1,0C533.5,89.9,531.5,84.9,531.5,76.2z"/>
</g>
<g>
	<g>
		<g>
			<path class="st5" d="M56.4,131.1C25.3,131.1,0,105.8,0,74.7C0,59.5,6.1,41,15.9,26.4C27.4,9.4,41.7,0,56.4,0
				c14.6,0,29,9.4,40.4,26.4c9.8,14.6,15.9,33.2,15.9,48.3C112.7,105.8,87.4,131.1,56.4,131.1z M56.4,9.2
				c-11.3,0-23.3,8.1-32.8,22.3C14.7,44.7,9.2,61.3,9.2,74.7c0,26,21.2,47.2,47.2,47.2s47.2-21.2,47.2-47.2c0-13.4-5.5-30-14.4-43.2
				C79.6,17.3,67.7,9.2,56.4,9.2z"/>
		</g>
	</g>
</g>
<g>
	<g>
		<g>
			<path class="st7" d="M44.6,104.9c-1.3,0-2.7-0.3-3.9-1c-0.3-0.2-0.6-0.4-1-0.5c-3.9-2.3-5.3-7.3-3-11.3c2.3-3.9,7.3-5.3,11.3-3
				c0.2,0.1,0.3,0.2,0.5,0.3c4,2.2,5.5,7.2,3.3,11.2C50.3,103.3,47.5,104.9,44.6,104.9z M68.7,104.6c-2.9,0-5.6-1.5-7.2-4.1
				c-2.3-4-0.9-9,3.1-11.3c0.2-0.1,0.3-0.2,0.5-0.3c3.9-2.4,9-1.2,11.4,2.6c2.4,3.9,1.2,9-2.6,11.4c-0.3,0.2-0.6,0.4-1,0.6
				C71.5,104.2,70.1,104.6,68.7,104.6z M31.5,83.7c-4.4,0-8.1-3.5-8.2-8c0-0.3,0-0.7,0-1l0-0.3c0.1-4.4,3.8-8,8.3-8c0,0,0,0,0,0
				c4.6,0,8.3,3.7,8.3,8.3c0,0,0,0.1,0,0.1c0,0.2,0,0.3,0,0.5c0.1,4.6-3.4,8.4-8,8.5C31.6,83.7,31.5,83.7,31.5,83.7z M81.3,83.1
				c-4.6,0-8.3-3.7-8.3-8.3v-0.1c0-0.2,0-0.4,0-0.6c-0.2-4.6,3.4-8.4,8-8.5c4.5-0.1,8.4,3.4,8.5,8c0,0.4,0,0.8,0,1.1v0.1
				C89.5,79.4,85.8,83.1,81.3,83.1z M43.2,61.8c-2.7,0-5.4-1.4-7-3.9c-2.4-3.9-1.3-9,2.6-11.4c0.3-0.2,0.7-0.4,1-0.6
				c4-2.3,9-0.9,11.3,3c2.3,4,0.9,9-3,11.3c-0.2,0.1-0.3,0.2-0.5,0.3C46.2,61.4,44.7,61.8,43.2,61.8z M68.8,61.4
				c-1.4,0-2.8-0.4-4.1-1.1c-0.2-0.1-0.3-0.2-0.5-0.3c-4-2.2-5.5-7.2-3.4-11.2c2.2-4,7.2-5.5,11.2-3.4c0.3,0.2,0.7,0.4,1,0.5
				c3.9,2.3,5.3,7.3,3,11.3C74.4,59.9,71.7,61.4,68.8,61.4z"/>
		</g>
	</g>
</g>
<g>
	<path class="st7" d="M229.1,129.9l-0.3-0.2l-0.1-0.2l0-0.2l0-0.3l0-0.3l0-0.3v-0.2l0-0.3v-0.3l0-0.2l0-0.4l0-0.3l0-0.3v-0.5l0-0.3
		l0-0.3l0-0.3v-0.2l0-0.4v-0.5l0-0.2v-0.1l0-0.2l0-0.3v-0.1l0-0.3l0-0.4l0-0.3l0-0.3l0-0.2l0-0.2l0-0.3l0-0.3v-0.4l0-0.3l0-0.2v-0.2
		l0-0.2l0-0.2l0.1-0.1l0.3-0.2l0.2,0l0.3,0l0.3,0l0.3,0.1l0.2,0.1l0.2,0.3l0.2,0.2l0.3,0.4l0.2,0.3l0.2,0.2l0.2,0.3l0.2,0.3l0.1,0.1
		l0.2,0.3l0.2,0.2l0.3,0.3l0.2,0.3l0.2,0.2l0.3,0.4l0.4,0.5l0.2,0.4l0.4,0.5l0.2,0.2l0.1,0.2l0.2,0.3l0.3,0.3l0.3,0.4l0.2,0.2
		l0.1,0.1l0.2,0.1h0.2l0-0.1l0-0.3l0-0.3v-1.5l0-0.4v-0.3l0-0.3v-0.3l0-0.2v-1l0-0.2l0-0.2l0-0.3v-0.2l0-0.2V120l0-0.3l0.1-0.3
		l0.1-0.1l0.2-0.1l0.1,0l0.2,0l0.2,0h0.4l0.2,0.1l0.1,0.2l0.1,0.2l0,0.4l0,0.4l0,0.2l0,0.3l0,0.2l0,0.2l0,0.2l0,0.2v0.6l0,0.4v0.8
		l0,0.2v0.1l0,0.2l0,0.3l0,0.2l0,0.1l0,0.2v1.8l0,0.4l0,0.2v1.7l0,0.3l0,0.4l-0.2,0.2l-0.1,0.1l-0.2,0l-0.3,0l-0.5,0l-0.3-0.1
		l-0.2-0.1l-0.2-0.3l-0.3-0.4l-0.6-0.9l-0.3-0.4l-0.2-0.2l-0.3-0.5l-0.4-0.5l-0.3-0.4l-0.2-0.3l-0.2-0.2l-0.1-0.1l-0.3-0.5l-0.2-0.2
		l-0.1-0.1l-0.1-0.2l-0.2-0.2l-0.4-0.5l-0.3-0.4l-0.2-0.2l-0.2-0.2l-0.1-0.2l-0.1-0.1l-0.2-0.1l-0.1,0.1l0,0.3l0,0.4v0.3l0,0.3
		l0,0.5v0.6l0,0.6l0,0.4l0,0.3l0,0.5v0.6l0,0.4v0.2l0,0.3l0,0.2l0,0.2v0.3l0,0.2l-0.1,0.2l-0.2,0.1l-0.1,0l-0.2,0h-0.2l-0.1,0
		L229.1,129.9z"/>
	<path class="st7" d="M242,130.1l-0.2,0l-0.3-0.1l-0.2-0.2l-0.2-0.2l-0.1-0.2v-0.3l0.1-0.3l0.1-0.2l0.1-0.2l0.1-0.2l0.1-0.3l0.1-0.2
		l0.3-0.6l0.2-0.3l0.1-0.4l0.2-0.5l0.2-0.4l0.1-0.2l0.1-0.2l0.1-0.3l0.2-0.6l0.2-0.3l0.1-0.3l0.2-0.5l0.2-0.6l0.1-0.3l0.2-0.6
		l0.2-0.4l0.1-0.2l0.1-0.3l0.1-0.2l0-0.1l0.1-0.2l0.1-0.2l0.1-0.2l0.1-0.2l0.1-0.2l0.1-0.1l0.1-0.2l0.2-0.2l0.4-0.1h0.4l0.2,0
		l0.2,0.2l0.1,0.2l0.1,0.2l0.2,0.4l0.2,0.3l0.3,0.6l0.1,0.2l0.1,0.2l0.1,0.3l0.1,0.3l0.1,0.2l0.1,0.2l0.2,0.4l0.2,0.3l0.1,0.3
		l0.1,0.2l0.1,0.2l0.1,0.2l0.1,0.2l0.1,0.2l0.1,0.3l0.1,0.2l0.1,0.2l0.2,0.3l0.1,0.3l0.2,0.5l0.3,0.5l0.2,0.4l0.1,0.2l0.1,0.1
		l0.1,0.2l0.2,0.4l0.1,0.3l0.1,0.1l0.1,0.3l0.1,0.3l0.1,0.3l-0.1,0.3l-0.2,0.2l-0.3,0.2l-0.5,0.1l-0.4-0.1l-0.1-0.1l-0.2-0.2l0-0.2
		l-0.1-0.3l-0.2-0.4l-0.1-0.2l-0.1-0.3l-0.2-0.4l-0.1-0.1l-0.1-0.2l-0.1-0.2l-0.1-0.2l-0.2-0.1l-0.3,0l-0.4,0h-1.8l-0.5,0l-0.4,0
		l-0.2,0l-0.3,0l-0.2,0l-0.2,0.1l-0.1,0.1l-0.3,0.6l-0.2,0.3l0,0.2l-0.1,0.2l-0.1,0.2l-0.1,0.3l-0.1,0.2l-0.2,0.2l-0.2,0.3l-0.2,0.1
		l-0.2,0.1L242,130.1z M247.4,125.4L247.4,125.4L247.4,125.4l0.1-0.2l0-0.3l-0.1-0.2l-0.3-0.6l-0.2-0.3l-0.2-0.5l-0.1-0.3l-0.1-0.3
		l-0.2-0.4l-0.2-0.2l-0.1,0.2l-0.1,0.4l-0.3,0.6l-0.2,0.4l-0.1,0.4l-0.1,0.3l-0.2,0.3l0,0.1l0,0.1v0.2l0.1,0.1l0.3,0h0.3l0.4,0l1,0
		L247.4,125.4z"/>
	<path class="st7" d="M255.9,129.9l-0.4,0l-0.4-0.1l-0.2-0.1l-0.1-0.1l-0.1-0.2l0-0.3v-0.5l0-0.2v-0.2l0-0.2l0-0.3l0-0.4l0-0.5
		l0-0.4l0-0.4v-2l0-0.5l0-0.4l0-0.3l0-0.3l0-0.4l0-0.4l0-0.3V121l0-0.5l0-0.4v-0.3l0.1-0.3l0.1-0.2l0.1-0.1l0.3,0l0.4,0l0.3,0l0.2,0
		l0.4,0h2l0.2,0h0.2l0.2,0l0.4,0l0.4,0l0.2,0l0.1,0l0.1,0l0.2,0l0.5,0.1l0.2,0l0.3,0.1l0.3,0.1l0.2,0.1l0.3,0.2l0.2,0.2l0.2,0.2
		l0.3,0.4l0.3,0.3l0.2,0.3l0.2,0.4l0.1,0.3l0.1,0.2l0.1,0.2l0.1,0.3l0.1,0.3l0,0.1l0,0.4l0,0.5l0,0.2l0,0.2l0,0.3l0,0.4l0,0.4
		l-0.1,0.4l-0.1,0.4l-0.1,0.4l-0.1,0.5l-0.1,0.3l-0.1,0.3l-0.1,0.2l-0.1,0.2l-0.2,0.3l-0.3,0.3l-0.2,0.2l-0.2,0.2l-0.2,0.2l-0.3,0.2
		l-0.4,0.2l-0.1,0.1l-0.2,0.1l-0.2,0.1l-0.6,0.2l-0.7,0h-0.5l-0.5,0l-0.4,0l-0.8,0l-0.5,0l-0.4,0l-0.3,0L255.9,129.9z M259.7,128.2
		l0.4-0.1l0.4-0.1l0.3,0l0.4-0.2l0.3-0.2l0.4-0.3l0.3-0.3l0.3-0.4l0.2-0.4l0.1-0.4l0.1-0.4l0-0.3v-1l0-0.4l0-0.3l-0.1-0.3l-0.1-0.4
		l-0.1-0.3l-0.1-0.2l-0.1-0.2l-0.3-0.3l-0.4-0.4l-0.4-0.2l-0.2-0.1l-0.6-0.2l-0.2,0l-0.4,0h-1.2l-0.6,0l-0.5,0l-0.2,0l-0.3,0
		l-0.2,0.1l-0.1,0.1l0,0.2l0,0.2l0,0.3v0.2l0,0.3l0,0.4v1l0,0.4v1l0,0.4v1.1l0,0.3l0,0.4l0,0.3v0.4l0,0.2l0.2,0.1l0.2,0l0.3,0l0.3,0
		h0.4l0.5,0H259.7z"/>
	<path class="st7" d="M267.6,130.1l-0.2,0l-0.3-0.1l-0.2-0.2l-0.2-0.2l-0.1-0.2v-0.3l0.1-0.3l0.1-0.2l0.1-0.2l0.1-0.2l0.1-0.3
		l0.1-0.2l0.3-0.6l0.2-0.3l0.1-0.4l0.2-0.5l0.2-0.4l0.1-0.2l0.1-0.2l0.1-0.3l0.2-0.6l0.2-0.3l0.1-0.3l0.2-0.5l0.2-0.6l0.1-0.3
		l0.2-0.6l0.2-0.4l0.1-0.2l0.1-0.3l0.1-0.2l0-0.1l0.1-0.2l0.1-0.2l0.1-0.2l0.1-0.2l0.1-0.2l0.1-0.1l0.1-0.2l0.2-0.2l0.4-0.1h0.4
		l0.2,0l0.2,0.2l0.1,0.2l0.1,0.2l0.2,0.4l0.2,0.3l0.3,0.6l0.1,0.2l0.1,0.2l0.1,0.3l0.1,0.3l0.1,0.2l0.1,0.2l0.2,0.4l0.2,0.3l0.1,0.3
		l0.1,0.2l0.1,0.2l0.1,0.2l0.1,0.2l0.1,0.2l0.1,0.3l0.1,0.2l0.1,0.2l0.2,0.3l0.1,0.3l0.2,0.5l0.3,0.5l0.2,0.4l0.1,0.2l0.1,0.1
		l0.1,0.2l0.2,0.4l0.1,0.3l0.1,0.1l0.1,0.3l0.1,0.3l0.1,0.3l-0.1,0.3l-0.2,0.2l-0.3,0.2l-0.5,0.1l-0.4-0.1l-0.1-0.1l-0.2-0.2l0-0.2
		l-0.1-0.3l-0.2-0.4l-0.1-0.2l-0.1-0.3l-0.2-0.4l-0.1-0.1l-0.1-0.2l-0.1-0.2l-0.1-0.2l-0.2-0.1l-0.3,0l-0.4,0h-1.8l-0.5,0l-0.4,0
		l-0.2,0l-0.3,0l-0.2,0l-0.2,0.1l-0.1,0.1l-0.3,0.6l-0.2,0.3l0,0.2l-0.1,0.2l-0.1,0.2l-0.1,0.3l-0.1,0.2l-0.2,0.2l-0.2,0.3l-0.2,0.1
		l-0.2,0.1L267.6,130.1z M273.1,125.4L273.1,125.4L273.1,125.4l0.1-0.2l0-0.3l-0.1-0.2l-0.3-0.6l-0.2-0.3l-0.2-0.5l-0.1-0.3
		l-0.1-0.3l-0.2-0.4l-0.2-0.2l-0.1,0.2l-0.1,0.4l-0.3,0.6l-0.2,0.4l-0.1,0.4l-0.1,0.3l-0.2,0.3l0,0.1l0,0.1v0.2l0.1,0.1l0.3,0h0.3
		l0.4,0l1,0L273.1,125.4z"/>
	<path class="st7" d="M291.9,129.9l-0.1,0l-0.1,0l-0.4,0l-0.3,0l-0.2,0l-0.4,0h-0.3l-0.3,0h-0.2l-0.2,0l-0.2,0l-0.1,0l-0.3,0h-0.5
		l-0.5,0l-0.6,0h-0.5l-0.2,0l-0.2-0.1l-0.2-0.3l0-0.4V128l0-0.5l0-0.4v-0.5l0-0.3l0-0.3l0-0.2v-0.2l0-0.2v-0.4l0,0l0-0.1l0-0.2v-0.1
		l0-0.4l0-0.6l0-0.4v-0.3l0-0.4v-1l0-0.3l0-0.2v-0.2l0-0.3v-0.2l0-0.3l0-0.4l0.1-0.2l0.1-0.2l0.2-0.1l0.1-0.1l0.2,0h0.4l0.6,0h1
		l0.4,0l0.3,0l0.5,0h1l0.3,0h0.3l0.2,0l0.4,0l0.2,0l0.6,0l0.2,0l0.2,0l0.2,0l0.2,0.1l0.1,0.2l0.1,0.3l0,0.3l0,0.2l-0.1,0.3l-0.2,0.2
		l-0.2,0.1l-0.4,0l-0.6,0l-0.3,0l-0.1,0l-0.5,0h-0.7l-0.6,0l-0.4,0h-0.2l-0.3,0l-0.8,0h-0.3l-0.3,0h-0.3l-0.3,0.1l0,0.2l0,0.3l0,0.1
		v0.3l0,0.4l0,0.4l0,0.4l0.1,0.4l0.2,0.1h0.1l0.3,0l0.4,0h0.3l0.3,0l0.3,0l1.2,0h0.8l0.2,0l0.3,0.1l0.2,0.2l0.1,0.2l0,0.2l0,0.1
		l0,0.4l0,0.3l-0.1,0.2l-0.3,0.2h-0.8l-0.9,0l-0.5,0h-0.2l-0.6,0l-0.2,0l-0.3,0l-0.4,0l-0.2,0l-0.2,0.1l-0.1,0.1l0,0.2l0,0.2l0,0.3
		v0.3l0,0.2v0.3l0,0.2v0.4l0.1,0.4l0.4,0.2h1.1l0.4,0l0.4,0l0.9,0l0.3,0h0.9l0.2,0h0.3l0.5,0l0.4,0h0.2l0.1,0l0.1,0.1l0.1,0.1l0,0.3
		l0,0.3v0.2l0,0.2l-0.1,0.2l-0.1,0.1l-0.1,0.1l-0.2,0l-0.8,0.1l-0.4,0h-0.4L291.9,129.9z"/>
	<path class="st7" d="M301.5,130.1l-0.2,0l-0.3,0l-0.4-0.1l-0.5-0.2l-0.3-0.1l-0.6-0.2l-0.4-0.2l-0.2-0.1l-0.3-0.2l-0.4-0.4
		l-0.3-0.3l-0.2-0.3l-0.1-0.3v-0.3l0.1-0.3l0.2-0.2l0.3-0.1l0.2,0l0.2-0.1h0.2l0.2,0l0.2,0.1l0.4,0.3l0.1,0.1l0.1,0.1l0.4,0.4
		l0.2,0.1l0.2,0.1l0.3,0.2l0.3,0.1l0.2,0.1l0.2,0.1l0.2,0h0.1l0.1,0l0.1,0l0.1,0l0.2,0l0.4,0l0.2-0.1h0.2l0.2,0l0.2,0l0.2,0l0.1-0.1
		l0.2-0.1l0.3-0.2l0.3-0.3l0.2-0.3l0-0.1l0.1-0.2l0-0.3l0-0.4l-0.3-0.4l-0.3-0.2l-0.2-0.1l-0.2-0.1l-0.2-0.1l-0.2,0l-0.2-0.1l-0.2,0
		l-0.2,0l-0.2,0l-0.3-0.1l-0.3,0l-0.2,0l-0.3,0l-0.6-0.1l-0.2,0l-0.2-0.1l-0.3-0.1l-0.3-0.1l-0.2-0.1l-0.2-0.1l-0.3-0.2l-0.2-0.2
		l-0.1,0l-0.2-0.1l-0.2-0.2l-0.1-0.1l-0.1-0.1l-0.1-0.2l-0.1-0.1l-0.2-0.2l-0.2-0.6v-0.4l0-0.3l0-0.4l0.1-0.2l0.1-0.2l0.1-0.2
		l0.1-0.1l0.1-0.2l0.2-0.2l0.5-0.5l0.2-0.1l0.2-0.2l0.3-0.1l0.2-0.2l0.2-0.1l0.1-0.1l0.1,0l0.2-0.1l0.6-0.2l0.3,0l0.4,0l0.2,0l0.2,0
		l0.3,0l0.3,0h0.1l0.1,0l0.5,0l0.1,0h0.1l0.2,0l0.1,0l0.2,0l0.4,0.2l0.2,0.1l0.1,0.1l0.2,0.1l0.4,0.2l0.2,0.2l0.3,0.3l0.3,0.3
		l0.3,0.4l0.1,0.3l0,0.5l0,0.1l-0.1,0.1l-0.1,0.1l-0.3,0.2l-0.3,0.1l-0.2,0l-0.2-0.1l-0.2-0.1l-0.2-0.2l-0.3-0.3l-0.2-0.2l-0.1-0.1
		l-0.3-0.1l-0.2-0.1l-0.4-0.2l-0.2-0.1l-0.4,0l-0.3,0l-0.4,0l-0.4,0l-0.3,0l-0.5,0.1l-0.4,0.2l-0.2,0.1l-0.2,0.2l-0.3,0.3l-0.1,0.2
		l-0.1,0.2l0,0.3l0.1,0.3l0.1,0.2l0.1,0.1l0.1,0.1l0.2,0.2l0.3,0.1l0.5,0.1l0.3,0.1l0.2,0l0.2,0l0.2,0l0.1,0l0.2,0.1h0.1l0.2,0h0.3
		l0.2,0l0.3,0l0.3,0.1l0.2,0l0.2,0l0.1,0l0.4,0l0.7,0.2l0.3,0.2l0.3,0.1l0.3,0.2l0.1,0.1l0.2,0.2l0.2,0.3l0.1,0.2l0.1,0.2l0.1,0.1
		l0,0.1l0.1,0.2l0,0.2l0,0.1l0,0l0,0.2v0.6l-0.1,0.4l-0.1,0.2l-0.1,0.2l-0.1,0.2l0,0.1l-0.1,0.2l-0.1,0.2l-0.1,0.1l-0.1,0.1
		l-0.1,0.1l-0.1,0.1l-0.1,0.1l-0.2,0.1l-0.3,0.2l-0.2,0.1l-0.1,0.1l-0.2,0.1l-0.2,0.1l-0.1,0l-0.2,0.1l-0.3,0.1l-0.4,0.1l-0.4,0
		l-0.2,0l-0.3,0h-0.6L301.5,130.1z"/>
	<path class="st7" d="M316.3,129.8l-0.2-0.1l-0.1-0.2l-0.1-0.3l0-0.3l0-0.3l0-0.3l0-0.2l0-0.4v-1.4l0-0.2l0-0.3v-1l0-0.4v-0.3l0-0.3
		l0-0.3l0-0.4l0-0.4l0-0.3v-0.7l0-0.2v-0.4l0-0.4v-0.8l0.1-0.2l0-0.1l0.1-0.1l0.1-0.1l0.2,0l0.2,0l0.2,0h0.3l0.2,0l0.2,0.1l0.1,0.1
		l0.1,0.1l0,0.1l0,0.2l0,0.3v0.2l0,0.3v0.2l0,0.3l0,0.3v1l0,0.3l0,0.3l0,0.3l0,0.5l0,0.3l0,0.1l0,0.2l0,0.3l0,0.3v0.1l0,0.1l0,0.1
		l0,0.3v0.3l0,0.5l0,0.3v0.4l0,0.3l0,0.4v0.1l0,0.1l0.1,0.1l0.1,0h0.7l0.3,0l0.1,0l0.2,0l0.2,0l0.3,0h0.3l0.2,0l0.3,0h0.3l0.2,0h0.3
		l0.2,0h0.3l0.4,0h0.4l0.2,0h0.2l0.2,0l0.2,0.1l0.2,0.2l0,0.1v0.7l0,0.2l0,0.1l-0.1,0.1l-0.3,0.1l-0.2,0l-0.3,0H322l-0.3,0l-0.2,0
		h-0.9l-0.2,0l-0.9,0h-3L316.3,129.8z"/>
	<path class="st7" d="M331.6,130.1h-0.3l-0.2,0l-0.3,0h-0.4l-0.3-0.1l-0.2,0l-0.2,0l-0.3-0.1l-0.4-0.1l-0.3-0.2l-0.2-0.1l-0.2-0.1
		l-0.2-0.1l-0.1-0.1l-0.2-0.1l-0.2-0.2l-0.3-0.2l-0.2-0.2l-0.6-0.7l-0.2-0.4l-0.2-0.3l-0.2-0.4l-0.1-0.3l-0.1-0.2l-0.1-0.4l-0.1-0.3
		l0-0.2l0-0.3l0-0.2l0-0.3V124l0-0.3l0-0.3l0.1-0.4l0-0.2l0.1-0.4l0.2-0.4l0.1-0.2l0.2-0.3l0.3-0.5l0.3-0.4l0.2-0.1l0.1-0.1l0.2-0.2
		l0.2-0.2l0.1-0.1l0.2-0.2l0.4-0.2l0.4-0.2l0.4-0.2l0.3-0.1l0.2-0.1l0.4-0.1l0.4-0.1l0.2,0l0.4,0l0.5,0l0.4,0h0.2l0.3,0l0.3,0.1
		l0.2,0l0.1,0.1l0.2,0.1l0.2,0.1l0.2,0.1l0.2,0.1l0.3,0.2l0.4,0.3l0.3,0.3l0.3,0.3l0.4,0.5l0.2,0.3l0.1,0.2l0.1,0.2l0.1,0.2l0.1,0.3
		l0.2,0.4l0.1,0.3l0.1,0.2l0,0.1l0.1,0.2l0.1,0.4l0,0.2v0.2l0,0.2l0,0.3l0,0.4l0,0.2l0,0.2l0,0.3l0,0.2l-0.1,0.3l-0.1,0.4l-0.1,0.3
		l-0.1,0.3l-0.1,0.2l-0.1,0.2l-0.1,0.2l-0.1,0.1l-0.1,0.1l-0.1,0.1l-0.1,0.1l-0.2,0.2l-0.2,0.2l-0.1,0.1l-0.1,0.1l-0.1,0.1L335,129
		l-0.2,0.1l-0.1,0.1l-0.2,0.1l-0.3,0.2l-0.3,0.2l-0.3,0.1l-0.2,0.1l-0.3,0.1l-0.4,0.1l-0.3,0H332L331.6,130.1z M332.2,128.3l0.2,0
		l0.1,0l0.1,0l0.1,0l0.2,0l0.2-0.1l0.2-0.1l0.3-0.2l0.3-0.2l0.4-0.3l0.2-0.2l0.1-0.1l0.1-0.2l0.2-0.3l0.3-0.5l0.1-0.3l0.1-0.3l0-0.3
		l0-0.4l0-0.2l0-0.4l-0.1-0.6l-0.1-0.4l-0.2-0.3l-0.1-0.3l-0.1-0.2l-0.1-0.2l-0.2-0.2l-0.1-0.1l-0.2-0.2l-0.5-0.4l-0.5-0.3l-0.3-0.1
		l-0.3-0.1l-0.1,0l-0.2-0.1l-0.3-0.1h-0.8l-0.2,0l-0.3,0l-0.4,0.1l-0.5,0.2l-0.9,0.5l-0.2,0.2l-0.1,0.2l-0.1,0.1l-0.2,0.3l-0.1,0.3
		l-0.1,0.1l-0.1,0.2l-0.1,0.2l-0.1,0.2l-0.1,0.2l0,0.2l-0.1,0.3l0,0.4l0,0.2l0,0.2l0,0.2v0.2l0,0.1l0,0.2l0.1,0.3l0,0.2l0.2,0.3
		l0.4,0.6l0.3,0.4l0.1,0.1l0.2,0.2l0.3,0.2l0.1,0.1l0.1,0l0.3,0.2l0.3,0.2l0.3,0.1l0.4,0.1l0.4,0.1l0.4,0L332.2,128.3z"/>
	<path class="st7" d="M354.4,131.5l-0.2-0.2l-0.2-0.3l-0.2-0.3l-0.1-0.2l-0.1-0.2l-0.1-0.2l-0.1-0.1l-0.1-0.1l-0.3,0l-0.4,0.1
		l-0.2,0.1l-0.2,0l-0.3,0l-0.2,0l-0.4,0h-0.4l-0.3-0.1l-0.2,0l-0.2,0l-0.3-0.1l-0.2,0l-0.1,0l-0.2,0l-0.3-0.1l-0.2-0.1l-0.2-0.1
		l-0.2-0.1l-0.2-0.1l-0.2-0.1l-0.2-0.1l-0.2-0.1l-0.1-0.1l-0.2-0.2l-0.4-0.4l-0.1-0.2l-0.2-0.2l-0.2-0.2l-0.2-0.4l-0.1-0.2l-0.1-0.2
		l-0.1-0.2l-0.1-0.2l-0.1-0.2l-0.1-0.3l-0.1-0.3l-0.1-0.3l-0.1-0.3l0-0.4l0-0.3v-0.2l0-0.2l0-0.2v-0.1l0-0.2l0-0.2l0.1-0.3l0.1-0.3
		l0.1-0.2l0.1-0.2l0.1-0.2l0.1-0.3l0.2-0.3l0.2-0.3l0.1-0.1l0.1-0.2l0.2-0.2l0.1-0.1l0.1-0.1l0.1-0.1l0.1-0.1l0.1-0.1l0.2-0.2l0-0.1
		l0.4-0.2l0.3-0.2l0.5-0.2l0.3-0.1l0.2-0.1l0.1,0l0.1,0l0.3-0.1l0.6,0l0.4,0h0.5l0.3,0l0.5,0.1l0.4,0.1l0.5,0.2l0.3,0.1l0.3,0.1
		l0.5,0.3l0.2,0.2l0.3,0.3l0.3,0.2l0.2,0.1l0.3,0.3l0.1,0.1l0.2,0.2l0.2,0.2l0.1,0.1l0.1,0.3l0.2,0.5l0.2,0.6l0.1,0.3l0,0.2l0.1,0.3
		l0,0.3l0,0.3v0.4l0,0.2v0.2l0,0.1l0,0.2l0,0.2l-0.1,0.3l-0.1,0.2l0,0.2l-0.1,0.3l-0.1,0.2l-0.1,0.2l-0.1,0.2l-0.1,0.1l0,0.1
		l-0.1,0.2l-0.2,0.2l-0.2,0.2l-0.2,0.2l-0.2,0.3l-0.1,0.2l-0.1,0.2l0,0.1l0.1,0.2l0.2,0.3l0.2,0.4l0.2,0.4l0.1,0.2l0,0.2l0,0.2
		l-0.2,0.2l-0.2,0.1l-0.2,0.2l-0.3,0.2h-0.2L354.4,131.5z M351.4,128.4h0.2l0.2-0.1l0.2-0.1l0-0.1l0-0.2l-0.2-0.4l-0.2-0.3l-0.1-0.2
		l-0.1-0.2l0-0.3l0.2-0.2l0.3-0.2l0.3-0.2l0.3-0.1l0.2,0l0.2,0.1l0.1,0.1l0.1,0.2l0.2,0.3l0.2,0.2l0.2,0.3l0.1,0.1l0.2-0.1l0.1-0.2
		l0.2-0.2l0.2-0.2l0.1-0.2l0.1-0.2l0.1-0.2l0.1-0.3l0-0.3l0-0.1v-0.9l0-0.1l0-0.3l-0.1-0.3l0-0.2l-0.1-0.2l0-0.1l0-0.1l-0.1-0.2
		l-0.1-0.2l-0.1-0.3l-0.2-0.2l-0.1-0.2l-0.2-0.2l-0.2-0.2l-0.2-0.2l-0.2-0.1l-0.2-0.1l-0.2-0.1l-0.3-0.1l-0.2-0.1l-0.1,0l-0.3-0.1
		l-0.5-0.1l-0.3,0l-0.3,0l-0.3,0l-0.3,0l-0.2,0.1l-0.3,0.1l-0.2,0.1l-0.2,0.1l-0.2,0.1l-0.3,0.2l-0.2,0.2l-0.2,0.2l-0.2,0.2
		l-0.3,0.4l-0.3,0.5l-0.1,0.3l-0.1,0.4l-0.1,0.4l-0.1,0.4l0,0.4v0.2l0.1,0.3l0.1,0.6l0.2,0.5l0.1,0.3l0.6,0.7l0.2,0.2l0.2,0.2
		l0.2,0.1l0.2,0.1l0.2,0.1l0.2,0.1l0.3,0.1l0.3,0.1l0.3,0.1l0.4,0L351.4,128.4z"/>
	<path class="st7" d="M363.8,130.1l-0.2,0l-0.2,0L363,130l-0.3-0.1l-0.2-0.1l-0.2,0l-0.2-0.2l-0.2-0.1l-0.2-0.1l-0.2-0.2l-0.1-0.2
		l-0.2-0.2l-0.2-0.2l-0.1-0.2l-0.1-0.2l0-0.1l-0.1-0.2l-0.1-0.3l-0.1-0.3l0-0.2l0-0.1l0-0.2v-0.5l0-0.2v-0.1l0-0.2l0-0.3l0-0.3
		l0-0.3v-0.3l0-0.2l0-0.1l0-0.2v-0.4l0-0.2v-0.1l0-0.2v-0.6l0-0.2v-0.1l0-0.2l0-0.2v-1.1l0-0.2l0-0.2l0-0.3l0-0.3l0-0.2l0.1-0.1
		l0.2-0.1l0.3-0.1h0.2l0.2,0l0.2,0l0.2,0.1l0.2,0.1l0.2,0.1l0,0.2l0,0.2l0,0.2l0,0.3v0.2l0,0.1l0,0.2v0.4l0,0.2v0.3l0,0.1l0,0.2
		l0,0.2v0.2l0,0.2l0,0.4v0.4l0,0.1l0,0.1l0,0.1v0.2l0,0.2l0,0.1l0,0.3l0,0.3l0,0.1v0.2l0,0.1l0,0.2l0,0.2l0,0.3v0.4l0,0.5l0,0.4
		l0.1,0.3l0.1,0.4l0.2,0.4l0.2,0.2l0.1,0.1l0.2,0.2l0.3,0.1l0.2,0.1l0.2,0.1l0.2,0l0.2,0l0.3,0h0.1l0.4,0l0.6,0l0.3-0.1l0.3-0.1
		l0.3-0.1l0.1-0.1l0.2-0.2l0.1-0.2l0.1,0l0.1-0.2l0.1-0.2l0-0.1l0-0.2l0-0.2l0-0.2v-0.3l0-0.2l0-0.1l0-0.1l0-0.2l0-0.4V125l0-0.3
		v-0.4l0-0.2v-0.2l0-0.3V123l0-0.2v-0.5l0-0.2l0-0.3v-0.3l0-0.4v-0.4l0-0.2v-0.2l0-0.4l0-0.3l0.1-0.3l0.1-0.1l0.1-0.1l0.2,0l0.3,0
		h0.2l0.2,0l0.2,0.1l0.2,0.2l0.1,0.3l0,0.2v0.3l0,0.2l0,0.4v0.9l0,0.4l0,0.2l0,0.3v0.2l0,0.2l0,0.3l0,0.4v1.1l0,0.3v0.4l0,0.3l0,0.4
		l0,0.2l0,0.4l0,0.3l0,0.2l-0.1,0.4l-0.1,0.3l-0.1,0.3l-0.2,0.3l-0.2,0.4l-0.3,0.3l-0.1,0l-0.1,0.1l-0.2,0.1l-0.1,0.1l-0.2,0.1
		l-0.3,0.2l-0.3,0.1l-0.3,0l-0.2,0.1l-0.9,0.1H364L363.8,130.1z"/>
	<path class="st7" d="M379.4,129.9l-0.1,0l-0.1,0l-0.4,0l-0.3,0l-0.2,0l-0.4,0h-0.3l-0.3,0H377l-0.2,0l-0.2,0l-0.1,0l-0.3,0h-0.5
		l-0.5,0l-0.6,0h-0.5l-0.2,0l-0.2-0.1l-0.2-0.3l0-0.4V128l0-0.5l0-0.4v-0.5l0-0.3l0-0.3l0-0.2v-0.2l0-0.2v-0.4l0,0l0-0.1l0-0.2v-0.1
		l0-0.4l0-0.6l0-0.4v-0.3l0-0.4v-1l0-0.3l0-0.2v-0.2l0-0.3v-0.2l0-0.3l0-0.4l0.1-0.2l0.1-0.2l0.2-0.1l0.1-0.1l0.2,0h0.4l0.6,0h1
		l0.4,0l0.3,0l0.5,0h1l0.3,0h0.3l0.2,0l0.4,0l0.2,0l0.6,0l0.2,0l0.2,0l0.2,0l0.2,0.1l0.1,0.2l0.1,0.3l0,0.3l0,0.2l-0.1,0.3l-0.2,0.2
		l-0.2,0.1l-0.4,0l-0.6,0l-0.3,0l-0.1,0l-0.5,0h-0.7l-0.6,0l-0.4,0h-0.2l-0.3,0l-0.8,0h-0.3l-0.3,0h-0.3l-0.3,0.1l0,0.2l0,0.3l0,0.1
		v0.3l0,0.4l0,0.4l0,0.4l0.1,0.4l0.2,0.1h0.1l0.3,0l0.4,0h0.3l0.3,0l0.3,0l1.2,0h0.8l0.2,0l0.3,0.1l0.2,0.2l0.1,0.2l0,0.2l0,0.1
		l0,0.4l0,0.3l-0.1,0.2l-0.3,0.2h-0.8l-0.9,0l-0.5,0h-0.2l-0.6,0l-0.2,0l-0.3,0l-0.4,0l-0.2,0l-0.2,0.1l-0.1,0.1l0,0.2l0,0.2l0,0.3
		v0.3l0,0.2v0.3l0,0.2v0.4l0.1,0.4l0.4,0.2h1.1l0.4,0l0.4,0l0.9,0l0.3,0h0.9l0.2,0h0.3l0.5,0l0.4,0h0.2l0.1,0l0.1,0.1l0.1,0.1l0,0.3
		l0,0.3v0.2l0,0.2l-0.1,0.2l-0.1,0.1l-0.1,0.1l-0.2,0l-0.8,0.1l-0.4,0h-0.4L379.4,129.9z"/>
	<path class="st7" d="M391.3,129.9l-0.2-0.1l-0.1-0.1l-0.1-0.1l0-0.2l0-0.2l0-0.3v-0.2l0-0.3l0-0.4v-0.2l0-0.3l0-0.3l0-0.3v-0.4
		l0-0.2l0-0.3l0-0.2l0-0.1l0-0.1l0-0.1l0.1,0l0.1,0l0-0.1h0l-0.1,0l0-0.1l0,0l0-0.1l0-0.1v-0.2l0-0.1l0-0.1l0-0.2l0-0.1l0-0.1v-0.3
		l0-0.2l0-0.1v-0.2l0-0.3l0-0.3l0-0.3v-0.4l0-0.6v-0.3l0-0.2v-0.8l0-0.3v-0.2l0-0.3l0.1-0.2l0.1-0.1l0.1-0.1l0.1,0l0.2,0h0.2l0.1,0
		l0.2,0l0.8,0l0.1,0l0.2,0l0.3,0h0.3l0.2,0h0.5l0.1,0h0.2l0.3,0h0.1l0.1,0l0.2,0l0.2,0l0.2,0l0.1,0l0.1,0h0.1l0.1,0l0.1,0l0.3,0
		l0.3,0l0.2,0l0.2,0l0.2,0.1l0.2,0l0.3,0.1l0.3,0.1l0.3,0.1l0.3,0.2l0.2,0.2l0.1,0.1l0.1,0.2l0.1,0.2l0.1,0.2l0.1,0.2l0,0.1l0.1,0.2
		l0.1,0.3l0,0.2l0,0.2v0.5l0,0.3l-0.1,0.3l0,0.3l-0.1,0.2l0,0.1l-0.1,0.2l-0.1,0.1l-0.2,0.2l-0.2,0.2l-0.1,0.1l-0.1,0.1l-0.2,0.2
		l-0.1,0.1l-0.1,0.1l-0.1,0.1l-0.1,0.1l-0.2,0.1l-0.3,0.1l-0.1,0.1l-0.2,0.1l-0.1,0l-0.2,0l-0.2,0h-0.7l-0.2,0h-0.3l-0.3,0l-0.3,0
		l-0.4,0l-0.4,0l-1,0h-0.4l-0.4,0l-0.1,0.3l-0.1,0.3v0.9l0,0.2l0,0.2l0,0.3l0,0.4v0.5l0,0.2v0.3l0,0.1l-0.1,0.2l-0.2,0.2l-0.2,0
		l-0.1,0l-0.2,0L391.3,129.9z M394.8,123.9l0.4,0l0.1,0l0.1,0l0.1,0l0.2,0l0.4,0l0.8,0l0.3-0.1l0.2-0.1l0.3-0.3l0.2-0.4l0.1-0.3
		l0-0.2v-0.3l-0.1-0.3l-0.1-0.3l-0.1-0.2l-0.1-0.1l-0.2-0.1l-0.4-0.2l-0.4,0l-0.2,0l-0.3,0l-0.2,0l-0.2,0l-0.2,0h-0.9l-0.2,0l-0.1,0
		h-0.1l-0.2,0l-0.3,0l-0.4,0l-0.4,0l-0.1,0l-0.1,0l-0.1,0.2l-0.1,0.2l0,0.3v0.3l0,0.2l0,0.2v1.1l0,0.3l0,0.1l0.1,0.1l0.2,0l0.2,0
		l0.3,0h0.8l0.2,0L394.8,123.9z"/>
	<path class="st7" d="M402.2,130.1l-0.2,0l-0.3-0.1l-0.2-0.2l-0.2-0.2l-0.1-0.2v-0.3l0.1-0.3l0.1-0.2l0.1-0.2l0.1-0.2l0.1-0.3
		l0.1-0.2l0.3-0.6l0.2-0.3l0.1-0.4l0.2-0.5l0.2-0.4l0.1-0.2l0.1-0.2l0.1-0.3l0.2-0.6l0.2-0.3l0.1-0.3l0.2-0.5l0.2-0.6l0.1-0.3
		l0.2-0.6l0.2-0.4l0.1-0.2l0.1-0.3l0.1-0.2l0-0.1l0.1-0.2l0.1-0.2l0.1-0.2l0.1-0.2l0.1-0.2l0.1-0.1l0.1-0.2l0.2-0.2l0.4-0.1h0.4
		l0.2,0l0.2,0.2l0.1,0.2l0.1,0.2l0.2,0.4l0.2,0.3l0.3,0.6l0.1,0.2l0.1,0.2l0.1,0.3l0.1,0.3l0.1,0.2l0.1,0.2l0.2,0.4l0.2,0.3l0.1,0.3
		l0.1,0.2l0.1,0.2l0.1,0.2l0.1,0.2l0.1,0.2l0.1,0.3l0.1,0.2l0.1,0.2l0.2,0.3l0.1,0.3l0.2,0.5l0.3,0.5l0.2,0.4l0.1,0.2l0.1,0.1
		l0.1,0.2l0.2,0.4l0.1,0.3l0.1,0.1l0.1,0.3l0.1,0.3l0.1,0.3l-0.1,0.3l-0.2,0.2l-0.3,0.2l-0.5,0.1l-0.4-0.1l-0.1-0.1l-0.2-0.2l0-0.2
		l-0.1-0.3l-0.2-0.4l-0.1-0.2l-0.1-0.3l-0.2-0.4l-0.1-0.1l-0.1-0.2l-0.1-0.2l-0.1-0.2l-0.2-0.1l-0.3,0l-0.4,0H406l-0.5,0l-0.4,0
		l-0.2,0l-0.3,0l-0.2,0l-0.2,0.1l-0.1,0.1l-0.3,0.6l-0.2,0.3l0,0.2l-0.1,0.2l-0.1,0.2l-0.1,0.3l-0.1,0.2l-0.2,0.2l-0.2,0.3l-0.2,0.1
		l-0.2,0.1L402.2,130.1z M407.6,125.4L407.6,125.4L407.6,125.4l0.1-0.2l0-0.3l-0.1-0.2l-0.3-0.6l-0.2-0.3l-0.2-0.5l-0.1-0.3
		l-0.1-0.3l-0.2-0.4l-0.2-0.2l-0.1,0.2l-0.1,0.4l-0.3,0.6l-0.2,0.4l-0.1,0.4l-0.1,0.3l-0.2,0.3l0,0.1l0,0.1v0.2l0.1,0.1l0.3,0h0.3
		l0.4,0l1,0L407.6,125.4z"/>
	<path class="st7" d="M422.7,130l-0.2-0.1l-0.1-0.1l-0.2-0.2l-0.2-0.3l-0.1-0.2l-0.1-0.2l-0.1-0.2l-0.1-0.2l-0.1-0.2l-0.1-0.2
		l-0.2-0.2l-0.2-0.3l-0.2-0.2l-0.1-0.2l-0.2-0.2l-0.2-0.3l-0.2-0.3l-0.2-0.3l-0.2-0.2l-0.1-0.1l-0.1-0.1l-0.2-0.1l-0.2-0.1l-0.2,0
		l-0.2,0l-0.1,0l-1,0l-0.4,0l-0.3,0.1l-0.1,0.2l0,0.4l0,0.4l0,0.2l0,0.4v0.3l0,0.4l0,0.1v0.3l0,0.3v0.3l0,0.2l0,0.2l-0.1,0.2
		l-0.1,0.1l-0.1,0l-0.2,0h-0.2l-0.3,0l-0.3,0l-0.2,0l-0.2-0.1l-0.1-0.2l-0.1-0.2V129l0-0.4l0-0.2l0-0.6v-0.4l0-0.3l0-0.2v-1l0-0.3
		l0-0.2l0-0.1v-0.7l0-0.3v-0.6l0-0.3v-0.2l0-0.2l0-0.2v-0.3l0-0.1l0-0.1l0-0.2v-0.3l0-0.1l0-0.2v-0.7l0-0.2l0-0.2l0-0.3V120l0-0.3
		l0.1-0.3l0.1-0.1l0.1-0.1l0.2-0.1l0.4-0.1l0.7,0l0.5,0l0.4,0h0.2l0.2,0l0.3,0l0.4,0l0.8,0h0.2l0.3,0h0.7l0.4,0l0.8,0.1l0.2,0
		l0.3,0.1l0.4,0.2l0.4,0.2l0.2,0.2l0.1,0.1l0.2,0.2l0.1,0.3l0.1,0.2l0.1,0.3l0.1,0.2l0.1,0.1l0,0.1l0,0.1l0,0.2l0,0.2l0,0.4l0,0.5
		l0,0.2l0,0.1l0,0.2l-0.1,0.2l-0.1,0.3l-0.2,0.4l-0.1,0.1l-0.1,0.2l-0.2,0.2l-0.2,0.1l-0.2,0.2l-0.3,0.2l-0.2,0.1l-0.3,0.2l-0.3,0.1
		l-0.1,0.1l0,0.1l0,0.1l0.1,0.2l0.2,0.3l0.2,0.3l0.2,0.2l0.1,0.1l0.1,0.1l0.5,0.7l0.2,0.2l0.2,0.2l0.2,0.2l0.1,0.2l0.2,0.2l0.1,0.3
		l0,0.1l-0.1,0.2l-0.2,0.3l-0.2,0.1l-0.3,0.2l-0.3,0.1L422.7,130z M420.6,124l0.1,0l0.2,0l0.1,0l0.2,0l0.1-0.1l0.1,0l0.1,0l0.1-0.1
		l0.1-0.1l0.1-0.1l0.1-0.3l0.1-0.3l0-0.1l0-0.2l0-0.2l0-0.2l-0.1-0.3l-0.1-0.2l-0.2-0.3l-0.3-0.2l-0.2-0.1l-0.3-0.1l-0.3,0l-0.2,0
		l-0.1,0h-0.1l-0.2,0l-0.2,0h-1l-0.2,0h-0.2l-0.3,0l-0.2,0h-0.5l-0.4,0l-0.1,0l0,0.1l0,0.2l0,0.4v0.5l0,0.4l0,0.5l0,0.5l0,0.3
		l0.2,0.1l0.2,0l0.2,0l0.3,0l0.2,0l0.3,0h0.3l0.1,0l0.3,0h0.4l0.6,0.1H420.6z"/>
	<path class="st7" d="M433.8,129.9l-0.1,0l-0.1,0l-0.4,0l-0.3,0l-0.2,0l-0.4,0H432l-0.3,0h-0.2l-0.2,0l-0.2,0l-0.1,0l-0.3,0h-0.5
		l-0.5,0l-0.6,0h-0.5l-0.2,0l-0.2-0.1l-0.2-0.3l0-0.4V128l0-0.5l0-0.4v-0.5l0-0.3l0-0.3l0-0.2v-0.2l0-0.2v-0.4l0,0l0-0.1l0-0.2v-0.1
		l0-0.4l0-0.6l0-0.4v-0.3l0-0.4v-1l0-0.3l0-0.2v-0.2l0-0.3v-0.2l0-0.3l0-0.4l0.1-0.2l0.1-0.2l0.2-0.1l0.1-0.1l0.2,0h0.4l0.6,0h1
		l0.4,0l0.3,0l0.5,0h1l0.3,0h0.3l0.2,0l0.4,0l0.2,0l0.6,0l0.2,0l0.2,0l0.2,0l0.2,0.1l0.1,0.2l0.1,0.3l0,0.3l0,0.2l-0.1,0.3l-0.2,0.2
		l-0.2,0.1l-0.4,0l-0.6,0l-0.3,0l-0.1,0l-0.5,0h-0.7l-0.6,0l-0.4,0H432l-0.3,0l-0.8,0h-0.3l-0.3,0H430l-0.3,0.1l0,0.2l0,0.3l0,0.1
		v0.3l0,0.4l0,0.4l0,0.4l0.1,0.4l0.2,0.1h0.1l0.3,0l0.4,0h0.3l0.3,0l0.3,0l1.2,0h0.8l0.2,0l0.3,0.1l0.2,0.2l0.1,0.2l0,0.2l0,0.1
		l0,0.4l0,0.3l-0.1,0.2l-0.3,0.2h-0.8l-0.9,0l-0.5,0h-0.2l-0.6,0l-0.2,0l-0.3,0l-0.4,0l-0.2,0l-0.2,0.1l-0.1,0.1l0,0.2l0,0.2l0,0.3
		v0.3l0,0.2v0.3l0,0.2v0.4l0.1,0.4l0.4,0.2h1.1l0.4,0l0.4,0l0.9,0l0.3,0h0.9l0.2,0h0.3l0.5,0l0.4,0h0.2l0.1,0l0.1,0.1l0.1,0.1l0,0.3
		l0,0.3v0.2l0,0.2l-0.1,0.2l-0.1,0.1l-0.1,0.1l-0.2,0l-0.8,0.1l-0.4,0h-0.4L433.8,129.9z"/>
	<path class="st7" d="M444.6,130.2l-0.3,0l-0.4,0l-0.3-0.1L443,130l-0.2-0.1l-0.5-0.2l-0.2-0.1l-0.2-0.1l-0.2-0.1l-0.1-0.1l-0.2-0.1
		l-0.2-0.1l-0.2-0.1l-0.2-0.2l-0.1-0.1l-0.2-0.2l-0.2-0.2l-0.2-0.2l-0.2-0.2l-0.1-0.1l-0.1-0.2l-0.1-0.2l-0.2-0.3l-0.1-0.3l-0.1-0.2
		l-0.1-0.3l-0.1-0.3l0-0.2l-0.1-0.2l0-0.2l0-0.2l0-0.3l0-0.2l0-0.4l0-0.3V124l0.1-0.3l0-0.2l0.1-0.4l0.1-0.5l0.2-0.4l0.1-0.2
		l0.1-0.2l0.1-0.2l0-0.1l0,0l0.1-0.2l0.2-0.3l0.2-0.3l0.2-0.2l0.2-0.2l0.3-0.2l0.4-0.3l0.3-0.2l0.5-0.2l0.3-0.1l0.2-0.1l0.2-0.1
		l0.2,0l0.4-0.1l0.2,0l0.1,0l0.3,0l0.3,0h0.3l0.3,0l0.1,0l0.3,0l0.3,0.1l0.4,0.1l0.4,0.2l0.1,0.1l0.3,0.2l0.4,0.2l0.3,0.2l0.3,0.2
		l0.2,0.2l0.2,0.2l0.2,0.3l0.2,0.3l0.1,0.2l0,0.2l-0.1,0.2l-0.2,0.2l-0.2,0.2l-0.2,0.1l-0.3,0l-0.2,0l-0.2-0.1l-0.2-0.2l-0.2-0.2
		l-0.2-0.2l-0.2-0.2l-0.2-0.1l-0.3-0.1l-0.3-0.1l-0.3-0.1l-0.4-0.1l-0.3-0.1h-0.3l-0.4,0l-0.4,0.1l-0.3,0l-0.3,0.1l-0.3,0.1
		l-0.3,0.2l-0.4,0.2l-0.2,0.1l-0.2,0.1l-0.2,0.2l-0.2,0.2l-0.2,0.2l-0.2,0.3l-0.2,0.5l-0.2,0.5l0,0.2l0,0.2l0,0.3v0.4l0.1,0.4l0,0.4
		l0.1,0.3l0,0.3l0.1,0.3l0.1,0.1l0.1,0.2l0.1,0.2l0,0.1l0.1,0.1l0.2,0.3l0.2,0.2l0.1,0.1l0.2,0.2l0.2,0.2l0.2,0.1l0.3,0.2l0.3,0.2
		l0.2,0.1l0.3,0.1l0.4,0.1l0.3,0l0.5,0l0.4-0.1l0.3-0.1l0.3-0.1l0.2-0.1l0.2-0.1l0.3-0.2l0.3-0.2l0.4-0.4l0.2-0.2l0.2-0.1l0.3,0
		l0.5,0.2l0.4,0.4l0.1,0.2l0,0.2l-0.1,0.3l-0.2,0.3l-0.2,0.2l-0.3,0.3l-0.7,0.5l-0.3,0.1l-0.1,0.1l-0.8,0.4l-0.2,0l-0.2,0.1l-0.2,0
		l-0.2,0.1l-0.4,0l-0.3,0L444.6,130.2z"/>
	<path class="st7" d="M458.7,129.9l-0.1,0l-0.1,0l-0.4,0l-0.3,0l-0.2,0l-0.4,0h-0.3l-0.3,0h-0.2l-0.2,0l-0.2,0l-0.1,0l-0.3,0H455
		l-0.5,0l-0.6,0h-0.5l-0.2,0l-0.2-0.1l-0.2-0.3l0-0.4V128l0-0.5l0-0.4v-0.5l0-0.3l0-0.3l0-0.2v-0.2l0-0.2v-0.4l0,0l0-0.1l0-0.2v-0.1
		l0-0.4l0-0.6l0-0.4v-0.3l0-0.4v-1l0-0.3l0-0.2v-0.2l0-0.3v-0.2l0-0.3l0-0.4l0.1-0.2l0.1-0.2l0.2-0.1l0.1-0.1l0.2,0h0.4l0.6,0h1
		l0.4,0l0.3,0l0.5,0h1l0.3,0h0.3l0.2,0l0.4,0l0.2,0l0.6,0l0.2,0l0.2,0l0.2,0l0.2,0.1l0.1,0.2l0.1,0.3l0,0.3l0,0.2l-0.1,0.3l-0.2,0.2
		l-0.2,0.1l-0.4,0l-0.6,0l-0.3,0l-0.1,0l-0.5,0H458l-0.6,0l-0.4,0h-0.2l-0.3,0l-0.8,0h-0.3l-0.3,0h-0.3l-0.3,0.1l0,0.2l0,0.3l0,0.1
		v0.3l0,0.4l0,0.4l0,0.4l0.1,0.4l0.2,0.1h0.1l0.3,0l0.4,0h0.3l0.3,0l0.3,0l1.2,0h0.8l0.2,0l0.3,0.1l0.2,0.2l0.1,0.2l0,0.2l0,0.1
		l0,0.4l0,0.3l-0.1,0.2l-0.3,0.2h-0.8l-0.9,0l-0.5,0h-0.2l-0.6,0l-0.2,0l-0.3,0l-0.4,0l-0.2,0l-0.2,0.1l-0.1,0.1l0,0.2l0,0.2l0,0.3
		v0.3l0,0.2v0.3l0,0.2v0.4l0.1,0.4l0.4,0.2h1.1l0.4,0l0.4,0l0.9,0l0.3,0h0.9l0.2,0h0.3l0.5,0l0.4,0h0.2l0.1,0l0.1,0.1l0.1,0.1l0,0.3
		l0,0.3v0.2l0,0.2l-0.1,0.2l-0.1,0.1l-0.1,0.1l-0.2,0l-0.8,0.1l-0.4,0H459L458.7,129.9z"/>
</g>
</svg>
